<?xml version="1.0" standalone="no"?>
<!DOCTYPE svg PUBLIC "-//W3C//DTD SVG 20010904//EN"
 "http://www.w3.org/TR/2001/REC-SVG-20010904/DTD/svg10.dtd">
<svg version="1.0" xmlns="http://www.w3.org/2000/svg"
 width="200.000000pt" height="60.000000pt" viewBox="0 0 200.000000 60.000000"
 preserveAspectRatio="xMidYMid meet">
<metadata>
Created by potrace 1.16, written by Peter Selinger 2001-2019
</metadata>
<g transform="translate(0.000000,60.000000) scale(0.100000,-0.100000)"
fill="#000000" stroke="none">
<path d="M109 426 c-44 -30 -79 -86 -79 -127 0 -35 38 -99 74 -122 33 -22 119
-22 154 -1 48 28 67 64 67 124 0 61 -18 93 -72 129 -44 29 -99 27 -144 -3z"/>
<path d="M367 403 c-4 -3 -7 -15 -7 -25 0 -13 7 -18 25 -18 25 0 25 -1 25 -79
0 -63 3 -80 16 -85 40 -15 44 -9 44 78 l0 85 28 3 c19 2 28 9 30 26 3 21 1 22
-76 22 -43 0 -82 -3 -85 -7z"/>
<path d="M710 340 c-15 -15 -20 -33 -20 -73 0 -55 12 -77 42 -77 15 0 18 9 18
55 0 48 2 55 20 55 17 0 20 -7 20 -43 0 -48 13 -67 47 -67 21 0 23 4 23 55 0
42 3 55 15 55 11 0 15 -11 15 -43 0 -48 13 -67 47 -67 21 0 23 4 23 60 0 51
-4 65 -25 85 -36 37 -96 30 -133 -14 -8 -9 -11 -10 -7 -3 10 19 -13 42 -41 42
-13 0 -33 -9 -44 -20z"/>
<path d="M995 335 c-32 -31 -34 -96 -5 -125 23 -23 98 -28 118 -8 27 27 14 43
-35 41 l-48 -2 40 7 c22 4 46 11 53 15 37 24 -14 97 -68 97 -19 0 -40 -9 -55
-25z"/>
<path d="M1162 344 c-18 -13 -22 -25 -22 -73 0 -59 11 -81 42 -81 15 0 18 9
18 55 0 47 3 55 19 55 10 0 21 -9 24 -19 3 -12 19 -24 38 -30 l34 -11 -37 4
c-31 4 -38 2 -38 -13 0 -28 21 -41 67 -41 35 0 46 5 59 25 23 35 7 71 -36 80
-17 4 -29 9 -27 12 3 2 22 0 42 -6 34 -9 36 -9 29 12 -14 48 -64 61 -107 27
-25 -20 -25 -20 -30 0 -6 24 -43 27 -75 4z"/>
<path d="M510 297 c0 -76 25 -107 86 -107 65 0 86 25 82 98 -3 57 -3 57 -36
60 l-34 3 2 -43 c3 -63 1 -68 -14 -68 -11 0 -16 15 -18 53 -3 51 -4 52 -35 55
l-33 3 0 -54z"/>
</g>
</svg>
